<mxfile host="app.diagrams.net" modified="2024-06-30T13:27:25.091Z" agent="Mozilla/5.0 (Windows NT 10.0; Win64; x64) AppleWebKit/537.36 (KHTML, like Gecko) Chrome/126.0.0.0 Safari/537.36" etag="ZGuZ86SSZnpH4v1_nNiL" version="24.6.4" type="github">
  <diagram name="Page-1" id="mYs24826p7FVLF63Oqcr">
    <mxGraphModel dx="1134" dy="704" grid="1" gridSize="10" guides="1" tooltips="1" connect="1" arrows="1" fold="1" page="1" pageScale="1" pageWidth="827" pageHeight="1169" math="0" shadow="0">
      <root>
        <mxCell id="0" />
        <mxCell id="1" parent="0" />
        <mxCell id="-Cj-5ChuYZjASWh673Wz-1" value="" style="ellipse;whiteSpace=wrap;html=1;" vertex="1" parent="1">
          <mxGeometry x="320" y="50" width="120" height="80" as="geometry" />
        </mxCell>
        <mxCell id="-Cj-5ChuYZjASWh673Wz-4" value="" style="edgeStyle=orthogonalEdgeStyle;rounded=0;orthogonalLoop=1;jettySize=auto;html=1;" edge="1" parent="1" source="-Cj-5ChuYZjASWh673Wz-2" target="-Cj-5ChuYZjASWh673Wz-3">
          <mxGeometry relative="1" as="geometry" />
        </mxCell>
        <mxCell id="-Cj-5ChuYZjASWh673Wz-2" value="Welcome Screen" style="text;html=1;align=center;verticalAlign=middle;whiteSpace=wrap;rounded=0;" vertex="1" parent="1">
          <mxGeometry x="354" y="80" width="60" height="30" as="geometry" />
        </mxCell>
        <mxCell id="-Cj-5ChuYZjASWh673Wz-6" value="" style="edgeStyle=orthogonalEdgeStyle;rounded=0;orthogonalLoop=1;jettySize=auto;html=1;" edge="1" parent="1" source="-Cj-5ChuYZjASWh673Wz-3" target="-Cj-5ChuYZjASWh673Wz-5">
          <mxGeometry relative="1" as="geometry" />
        </mxCell>
        <mxCell id="-Cj-5ChuYZjASWh673Wz-9" value="" style="edgeStyle=orthogonalEdgeStyle;rounded=0;orthogonalLoop=1;jettySize=auto;html=1;" edge="1" parent="1" source="-Cj-5ChuYZjASWh673Wz-3" target="-Cj-5ChuYZjASWh673Wz-8">
          <mxGeometry relative="1" as="geometry" />
        </mxCell>
        <mxCell id="-Cj-5ChuYZjASWh673Wz-3" value="Want Login?" style="rhombus;whiteSpace=wrap;html=1;" vertex="1" parent="1">
          <mxGeometry x="344" y="165" width="80" height="80" as="geometry" />
        </mxCell>
        <mxCell id="-Cj-5ChuYZjASWh673Wz-5" value="Create Parmanent User" style="whiteSpace=wrap;html=1;" vertex="1" parent="1">
          <mxGeometry x="164" y="175" width="120" height="60" as="geometry" />
        </mxCell>
        <mxCell id="-Cj-5ChuYZjASWh673Wz-7" value="Yes" style="text;html=1;align=center;verticalAlign=middle;resizable=0;points=[];autosize=1;strokeColor=none;fillColor=none;" vertex="1" parent="1">
          <mxGeometry x="301" y="178" width="40" height="30" as="geometry" />
        </mxCell>
        <mxCell id="-Cj-5ChuYZjASWh673Wz-8" value="Create Tem User" style="whiteSpace=wrap;html=1;" vertex="1" parent="1">
          <mxGeometry x="484" y="175" width="120" height="60" as="geometry" />
        </mxCell>
        <mxCell id="-Cj-5ChuYZjASWh673Wz-10" value="No" style="text;html=1;align=center;verticalAlign=middle;resizable=0;points=[];autosize=1;strokeColor=none;fillColor=none;" vertex="1" parent="1">
          <mxGeometry x="431" y="168" width="40" height="30" as="geometry" />
        </mxCell>
      </root>
    </mxGraphModel>
  </diagram>
</mxfile>
